<?xml version="1.0" encoding="UTF-8"?>
<svg height="16px" viewBox="0 0 16 16" width="16px" xmlns="http://www.w3.org/2000/svg">
    <path d="m 1.386719 0 c -0.824219 0.0703125 -1.4453128 0.789062 -1.386719 1.617188 v 12.382812 c 0 1.105469 0.894531 2 2 2 h 12 c 1.105469 0 2 -0.894531 2 -2 v -12 c 0 -1.105469 -0.894531 -2 -2 -2 h -9.394531 c -0.335938 0 -0.609375 0.273438 -0.609375 0.609375 v 0.78125 c 0.003906 0.335937 -0.269532 0.609375 -0.609375 0.609375 h -0.78125 c -0.335938 0 -0.609375 -0.273438 -0.609375 -0.609375 v -0.78125 c 0.003906 -0.335937 -0.269532 -0.609375 -0.609375 -0.609375 z m 11.113281 2 c 0.828125 0 1.5 0.671875 1.5 1.5 s -0.671875 1.5 -1.5 1.5 s -1.5 -0.671875 -1.5 -1.5 s 0.671875 -1.5 1.5 -1.5 z m -9.894531 2 h 0.78125 c 0.339843 0 0.613281 0.273438 0.609375 0.609375 v 0.78125 c 0.003906 0.335937 -0.269532 0.609375 -0.609375 0.609375 h -0.78125 c -0.335938 0 -0.609375 -0.273438 -0.609375 -0.609375 v -0.78125 c 0 -0.335937 0.273437 -0.609375 0.609375 -0.609375 z m 5.28125 1.921875 c 0.53125 0 1.003906 0.320313 1.199219 0.808594 l 0.914062 2.304687 l 0.292969 -0.90625 c 0.160156 -0.492187 0.605469 -0.835937 1.125 -0.867187 c 0.519531 -0.027344 1 0.265625 1.210937 0.738281 l 1.371094 3.035156 h -9 l 1.695312 -4.300781 c 0.191407 -0.488281 0.667969 -0.8125 1.191407 -0.8125 z m -5.28125 2.078125 h 0.78125 c 0.339843 0 0.613281 0.273438 0.609375 0.609375 v 0.78125 c 0.003906 0.335937 -0.269532 0.609375 -0.609375 0.609375 h -0.78125 c -0.335938 0 -0.609375 -0.273438 -0.609375 -0.609375 v -0.78125 c 0 -0.335937 0.273437 -0.609375 0.609375 -0.609375 z m 0 4 h 0.78125 c 0.339843 0 0.613281 0.273438 0.609375 0.609375 v 0.78125 c 0.003906 0.335937 -0.269532 0.609375 -0.609375 0.609375 h -0.78125 c -0.335938 0 -0.609375 -0.273438 -0.609375 -0.609375 v -0.78125 c 0 -0.335937 0.273437 -0.609375 0.609375 -0.609375 z m 0 0"
          fill="#9141ac"/>
</svg>
