<?xml version="1.0" encoding="UTF-8"?>
<svg xmlns:xlink="http://www.w3.org/1999/xlink" height="128px" viewBox="0 0 128 128" width="128px"
     xmlns="http://www.w3.org/2000/svg">
    <filter id="a" height="100%" width="100%" x="0%" y="0%">
        <feColorMatrix color-interpolation-filters="sRGB" values="0 0 0 0 1 0 0 0 0 1 0 0 0 0 1 0 0 0 1 0"/>
    </filter>
    <linearGradient id="b" gradientUnits="userSpaceOnUse" x1="-62.85965" x2="-40" y1="43.631638" y2="115.619965">
        <stop offset="0" stop-color="#99c1f1"/>
        <stop offset="0.5" stop-color="#3584e4"/>
        <stop offset="1" stop-color="#1a5fb4"/>
    </linearGradient>
    <clipPath id="c">
        <path d="m 8 28 h 112 v 88 h -112 z m 0 0"/>
    </clipPath>
    <clipPath id="d">
        <path d="m 8 30 v 84 c 0 1.105469 0.894531 2 2 2 s 2 -0.894531 2 -2 s 0.894531 -2 2 -2 h 4 c 1.105469 0 2 0.894531 2 2 s 0.894531 2 2 2 h 84 c 1.105469 0 2 -0.894531 2 -2 s 0.894531 -2 2 -2 h 4 c 1.105469 0 2 0.894531 2 2 s 0.894531 2 2 2 s 2 -0.894531 2 -2 v -84 c 0 -1.105469 -0.894531 -2 -2 -2 s -2 0.894531 -2 2 v 4 c 0 1.105469 -0.894531 2 -2 2 h -4 c -1.105469 0 -2 -0.894531 -2 -2 v -4 c 0 -1.105469 -0.894531 -2 -2 -2 h -84 c -1.105469 0 -2 0.894531 -2 2 v 4 c 0 1.105469 -0.894531 2 -2 2 h -4 c -1.105469 0 -2 -0.894531 -2 -2 v -4 c 0 -1.105469 -0.894531 -2 -2 -2 s -2 0.894531 -2 2 z m 6 10 h 4 c 1.105469 0 2 0.894531 2 2 v 4 c 0 1.105469 -0.894531 2 -2 2 h -4 c -1.105469 0 -2 -0.894531 -2 -2 v -4 c 0 -1.105469 0.894531 -2 2 -2 z m 96 0 h 4 c 1.105469 0 2 0.894531 2 2 v 4 c 0 1.105469 -0.894531 2 -2 2 h -4 c -1.105469 0 -2 -0.894531 -2 -2 v -4 c 0 -1.105469 0.894531 -2 2 -2 z m -96 12 h 4 c 1.105469 0 2 0.894531 2 2 v 4 c 0 1.105469 -0.894531 2 -2 2 h -4 c -1.105469 0 -2 -0.894531 -2 -2 v -4 c 0 -1.105469 0.894531 -2 2 -2 z m 96 0 h 4 c 1.105469 0 2 0.894531 2 2 v 4 c 0 1.105469 -0.894531 2 -2 2 h -4 c -1.105469 0 -2 -0.894531 -2 -2 v -4 c 0 -1.105469 0.894531 -2 2 -2 z m -96 12 h 4 c 1.105469 0 2 0.894531 2 2 v 4 c 0 1.105469 -0.894531 2 -2 2 h -4 c -1.105469 0 -2 -0.894531 -2 -2 v -4 c 0 -1.105469 0.894531 -2 2 -2 z m 96 0 h 4 c 1.105469 0 2 0.894531 2 2 v 4 c 0 1.105469 -0.894531 2 -2 2 h -4 c -1.105469 0 -2 -0.894531 -2 -2 v -4 c 0 -1.105469 0.894531 -2 2 -2 z m -96 12 h 4 c 1.105469 0 2 0.894531 2 2 v 4 c 0 1.105469 -0.894531 2 -2 2 h -4 c -1.105469 0 -2 -0.894531 -2 -2 v -4 c 0 -1.105469 0.894531 -2 2 -2 z m 96 0 h 4 c 1.105469 0 2 0.894531 2 2 v 4 c 0 1.105469 -0.894531 2 -2 2 h -4 c -1.105469 0 -2 -0.894531 -2 -2 v -4 c 0 -1.105469 0.894531 -2 2 -2 z m -96 12 h 4 c 1.105469 0 2 0.894531 2 2 v 4 c 0 1.105469 -0.894531 2 -2 2 h -4 c -1.105469 0 -2 -0.894531 -2 -2 v -4 c 0 -1.105469 0.894531 -2 2 -2 z m 96 0 h 4 c 1.105469 0 2 0.894531 2 2 v 4 c 0 1.105469 -0.894531 2 -2 2 h -4 c -1.105469 0 -2 -0.894531 -2 -2 v -4 c 0 -1.105469 0.894531 -2 2 -2 z m -96 12 h 4 c 1.105469 0 2 0.894531 2 2 v 4 c 0 1.105469 -0.894531 2 -2 2 h -4 c -1.105469 0 -2 -0.894531 -2 -2 v -4 c 0 -1.105469 0.894531 -2 2 -2 z m 96 0 h 4 c 1.105469 0 2 0.894531 2 2 v 4 c 0 1.105469 -0.894531 2 -2 2 h -4 c -1.105469 0 -2 -0.894531 -2 -2 v -4 c 0 -1.105469 0.894531 -2 2 -2 z m 0 0"/>
    </clipPath>
    <linearGradient id="e" gradientUnits="userSpaceOnUse" x1="13.374026" x2="107.50499" y1="32.236058" y2="119.505009">
        <stop offset="0" stop-color="#1a5fb4"/>
        <stop offset="0.516404" stop-color="#3584e4"/>
        <stop offset="1" stop-color="#1a5fb4"/>
    </linearGradient>
    <clipPath id="f">
        <path d="m 28 28 h 72 v 40 h -72 z m 0 0"/>
    </clipPath>
    <clipPath id="g">
        <path d="m 8 30 v 84 c 0 1.105469 0.894531 2 2 2 s 2 -0.894531 2 -2 s 0.894531 -2 2 -2 h 4 c 1.105469 0 2 0.894531 2 2 s 0.894531 2 2 2 h 84 c 1.105469 0 2 -0.894531 2 -2 s 0.894531 -2 2 -2 h 4 c 1.105469 0 2 0.894531 2 2 s 0.894531 2 2 2 s 2 -0.894531 2 -2 v -84 c 0 -1.105469 -0.894531 -2 -2 -2 s -2 0.894531 -2 2 v 4 c 0 1.105469 -0.894531 2 -2 2 h -4 c -1.105469 0 -2 -0.894531 -2 -2 v -4 c 0 -1.105469 -0.894531 -2 -2 -2 h -84 c -1.105469 0 -2 0.894531 -2 2 v 4 c 0 1.105469 -0.894531 2 -2 2 h -4 c -1.105469 0 -2 -0.894531 -2 -2 v -4 c 0 -1.105469 -0.894531 -2 -2 -2 s -2 0.894531 -2 2 z m 6 10 h 4 c 1.105469 0 2 0.894531 2 2 v 4 c 0 1.105469 -0.894531 2 -2 2 h -4 c -1.105469 0 -2 -0.894531 -2 -2 v -4 c 0 -1.105469 0.894531 -2 2 -2 z m 96 0 h 4 c 1.105469 0 2 0.894531 2 2 v 4 c 0 1.105469 -0.894531 2 -2 2 h -4 c -1.105469 0 -2 -0.894531 -2 -2 v -4 c 0 -1.105469 0.894531 -2 2 -2 z m -96 12 h 4 c 1.105469 0 2 0.894531 2 2 v 4 c 0 1.105469 -0.894531 2 -2 2 h -4 c -1.105469 0 -2 -0.894531 -2 -2 v -4 c 0 -1.105469 0.894531 -2 2 -2 z m 96 0 h 4 c 1.105469 0 2 0.894531 2 2 v 4 c 0 1.105469 -0.894531 2 -2 2 h -4 c -1.105469 0 -2 -0.894531 -2 -2 v -4 c 0 -1.105469 0.894531 -2 2 -2 z m -96 12 h 4 c 1.105469 0 2 0.894531 2 2 v 4 c 0 1.105469 -0.894531 2 -2 2 h -4 c -1.105469 0 -2 -0.894531 -2 -2 v -4 c 0 -1.105469 0.894531 -2 2 -2 z m 96 0 h 4 c 1.105469 0 2 0.894531 2 2 v 4 c 0 1.105469 -0.894531 2 -2 2 h -4 c -1.105469 0 -2 -0.894531 -2 -2 v -4 c 0 -1.105469 0.894531 -2 2 -2 z m -96 12 h 4 c 1.105469 0 2 0.894531 2 2 v 4 c 0 1.105469 -0.894531 2 -2 2 h -4 c -1.105469 0 -2 -0.894531 -2 -2 v -4 c 0 -1.105469 0.894531 -2 2 -2 z m 96 0 h 4 c 1.105469 0 2 0.894531 2 2 v 4 c 0 1.105469 -0.894531 2 -2 2 h -4 c -1.105469 0 -2 -0.894531 -2 -2 v -4 c 0 -1.105469 0.894531 -2 2 -2 z m -96 12 h 4 c 1.105469 0 2 0.894531 2 2 v 4 c 0 1.105469 -0.894531 2 -2 2 h -4 c -1.105469 0 -2 -0.894531 -2 -2 v -4 c 0 -1.105469 0.894531 -2 2 -2 z m 96 0 h 4 c 1.105469 0 2 0.894531 2 2 v 4 c 0 1.105469 -0.894531 2 -2 2 h -4 c -1.105469 0 -2 -0.894531 -2 -2 v -4 c 0 -1.105469 0.894531 -2 2 -2 z m -96 12 h 4 c 1.105469 0 2 0.894531 2 2 v 4 c 0 1.105469 -0.894531 2 -2 2 h -4 c -1.105469 0 -2 -0.894531 -2 -2 v -4 c 0 -1.105469 0.894531 -2 2 -2 z m 96 0 h 4 c 1.105469 0 2 0.894531 2 2 v 4 c 0 1.105469 -0.894531 2 -2 2 h -4 c -1.105469 0 -2 -0.894531 -2 -2 v -4 c 0 -1.105469 0.894531 -2 2 -2 z m 0 0"/>
    </clipPath>
    <clipPath id="h">
        <path d="m 32.390625 21.410156 h 63.21875 c 2.425781 0 4.390625 1.96875 4.390625 4.394532 v 37.804687 c 0 2.425781 -1.964844 4.390625 -4.390625 4.390625 h -63.21875 c -2.425781 0 -4.390625 -1.964844 -4.390625 -4.390625 v -37.804687 c 0 -2.425782 1.964844 -4.394532 4.390625 -4.394532 z m 0 0"/>
    </clipPath>
    <linearGradient id="i" gradientUnits="userSpaceOnUse">
        <stop offset="0" stop-color="#ffc77f"/>
        <stop offset="1" stop-color="#d44b87"/>
    </linearGradient>
    <linearGradient id="j" gradientTransform="matrix(2.117647 0 0 1.791855 -52.470591 -75.34842)" x1="53" x2="53"
                    xlink:href="#i" y1="71.727272" y2="54"/>
    <clipPath id="k">
        <path d="m 39 44 h 61 v 24 h -61 z m 0 0"/>
    </clipPath>
    <clipPath id="l">
        <path d="m 8 30 v 84 c 0 1.105469 0.894531 2 2 2 s 2 -0.894531 2 -2 s 0.894531 -2 2 -2 h 4 c 1.105469 0 2 0.894531 2 2 s 0.894531 2 2 2 h 84 c 1.105469 0 2 -0.894531 2 -2 s 0.894531 -2 2 -2 h 4 c 1.105469 0 2 0.894531 2 2 s 0.894531 2 2 2 s 2 -0.894531 2 -2 v -84 c 0 -1.105469 -0.894531 -2 -2 -2 s -2 0.894531 -2 2 v 4 c 0 1.105469 -0.894531 2 -2 2 h -4 c -1.105469 0 -2 -0.894531 -2 -2 v -4 c 0 -1.105469 -0.894531 -2 -2 -2 h -84 c -1.105469 0 -2 0.894531 -2 2 v 4 c 0 1.105469 -0.894531 2 -2 2 h -4 c -1.105469 0 -2 -0.894531 -2 -2 v -4 c 0 -1.105469 -0.894531 -2 -2 -2 s -2 0.894531 -2 2 z m 6 10 h 4 c 1.105469 0 2 0.894531 2 2 v 4 c 0 1.105469 -0.894531 2 -2 2 h -4 c -1.105469 0 -2 -0.894531 -2 -2 v -4 c 0 -1.105469 0.894531 -2 2 -2 z m 96 0 h 4 c 1.105469 0 2 0.894531 2 2 v 4 c 0 1.105469 -0.894531 2 -2 2 h -4 c -1.105469 0 -2 -0.894531 -2 -2 v -4 c 0 -1.105469 0.894531 -2 2 -2 z m -96 12 h 4 c 1.105469 0 2 0.894531 2 2 v 4 c 0 1.105469 -0.894531 2 -2 2 h -4 c -1.105469 0 -2 -0.894531 -2 -2 v -4 c 0 -1.105469 0.894531 -2 2 -2 z m 96 0 h 4 c 1.105469 0 2 0.894531 2 2 v 4 c 0 1.105469 -0.894531 2 -2 2 h -4 c -1.105469 0 -2 -0.894531 -2 -2 v -4 c 0 -1.105469 0.894531 -2 2 -2 z m -96 12 h 4 c 1.105469 0 2 0.894531 2 2 v 4 c 0 1.105469 -0.894531 2 -2 2 h -4 c -1.105469 0 -2 -0.894531 -2 -2 v -4 c 0 -1.105469 0.894531 -2 2 -2 z m 96 0 h 4 c 1.105469 0 2 0.894531 2 2 v 4 c 0 1.105469 -0.894531 2 -2 2 h -4 c -1.105469 0 -2 -0.894531 -2 -2 v -4 c 0 -1.105469 0.894531 -2 2 -2 z m -96 12 h 4 c 1.105469 0 2 0.894531 2 2 v 4 c 0 1.105469 -0.894531 2 -2 2 h -4 c -1.105469 0 -2 -0.894531 -2 -2 v -4 c 0 -1.105469 0.894531 -2 2 -2 z m 96 0 h 4 c 1.105469 0 2 0.894531 2 2 v 4 c 0 1.105469 -0.894531 2 -2 2 h -4 c -1.105469 0 -2 -0.894531 -2 -2 v -4 c 0 -1.105469 0.894531 -2 2 -2 z m -96 12 h 4 c 1.105469 0 2 0.894531 2 2 v 4 c 0 1.105469 -0.894531 2 -2 2 h -4 c -1.105469 0 -2 -0.894531 -2 -2 v -4 c 0 -1.105469 0.894531 -2 2 -2 z m 96 0 h 4 c 1.105469 0 2 0.894531 2 2 v 4 c 0 1.105469 -0.894531 2 -2 2 h -4 c -1.105469 0 -2 -0.894531 -2 -2 v -4 c 0 -1.105469 0.894531 -2 2 -2 z m -96 12 h 4 c 1.105469 0 2 0.894531 2 2 v 4 c 0 1.105469 -0.894531 2 -2 2 h -4 c -1.105469 0 -2 -0.894531 -2 -2 v -4 c 0 -1.105469 0.894531 -2 2 -2 z m 96 0 h 4 c 1.105469 0 2 0.894531 2 2 v 4 c 0 1.105469 -0.894531 2 -2 2 h -4 c -1.105469 0 -2 -0.894531 -2 -2 v -4 c 0 -1.105469 0.894531 -2 2 -2 z m 0 0"/>
    </clipPath>
    <clipPath id="m">
        <path d="m 32.390625 21.410156 h 63.21875 c 2.425781 0 4.390625 1.96875 4.390625 4.394532 v 37.804687 c 0 2.425781 -1.964844 4.390625 -4.390625 4.390625 h -63.21875 c -2.425781 0 -4.390625 -1.964844 -4.390625 -4.390625 v -37.804687 c 0 -2.425782 1.964844 -4.394532 4.390625 -4.394532 z m 0 0"/>
    </clipPath>
    <clipPath id="n">
        <path d="m 28 28 h 72 v 40 h -72 z m 0 0"/>
    </clipPath>
    <clipPath id="o">
        <path d="m 8 30 v 84 c 0 1.105469 0.894531 2 2 2 s 2 -0.894531 2 -2 s 0.894531 -2 2 -2 h 4 c 1.105469 0 2 0.894531 2 2 s 0.894531 2 2 2 h 84 c 1.105469 0 2 -0.894531 2 -2 s 0.894531 -2 2 -2 h 4 c 1.105469 0 2 0.894531 2 2 s 0.894531 2 2 2 s 2 -0.894531 2 -2 v -84 c 0 -1.105469 -0.894531 -2 -2 -2 s -2 0.894531 -2 2 v 4 c 0 1.105469 -0.894531 2 -2 2 h -4 c -1.105469 0 -2 -0.894531 -2 -2 v -4 c 0 -1.105469 -0.894531 -2 -2 -2 h -84 c -1.105469 0 -2 0.894531 -2 2 v 4 c 0 1.105469 -0.894531 2 -2 2 h -4 c -1.105469 0 -2 -0.894531 -2 -2 v -4 c 0 -1.105469 -0.894531 -2 -2 -2 s -2 0.894531 -2 2 z m 6 10 h 4 c 1.105469 0 2 0.894531 2 2 v 4 c 0 1.105469 -0.894531 2 -2 2 h -4 c -1.105469 0 -2 -0.894531 -2 -2 v -4 c 0 -1.105469 0.894531 -2 2 -2 z m 96 0 h 4 c 1.105469 0 2 0.894531 2 2 v 4 c 0 1.105469 -0.894531 2 -2 2 h -4 c -1.105469 0 -2 -0.894531 -2 -2 v -4 c 0 -1.105469 0.894531 -2 2 -2 z m -96 12 h 4 c 1.105469 0 2 0.894531 2 2 v 4 c 0 1.105469 -0.894531 2 -2 2 h -4 c -1.105469 0 -2 -0.894531 -2 -2 v -4 c 0 -1.105469 0.894531 -2 2 -2 z m 96 0 h 4 c 1.105469 0 2 0.894531 2 2 v 4 c 0 1.105469 -0.894531 2 -2 2 h -4 c -1.105469 0 -2 -0.894531 -2 -2 v -4 c 0 -1.105469 0.894531 -2 2 -2 z m -96 12 h 4 c 1.105469 0 2 0.894531 2 2 v 4 c 0 1.105469 -0.894531 2 -2 2 h -4 c -1.105469 0 -2 -0.894531 -2 -2 v -4 c 0 -1.105469 0.894531 -2 2 -2 z m 96 0 h 4 c 1.105469 0 2 0.894531 2 2 v 4 c 0 1.105469 -0.894531 2 -2 2 h -4 c -1.105469 0 -2 -0.894531 -2 -2 v -4 c 0 -1.105469 0.894531 -2 2 -2 z m -96 12 h 4 c 1.105469 0 2 0.894531 2 2 v 4 c 0 1.105469 -0.894531 2 -2 2 h -4 c -1.105469 0 -2 -0.894531 -2 -2 v -4 c 0 -1.105469 0.894531 -2 2 -2 z m 96 0 h 4 c 1.105469 0 2 0.894531 2 2 v 4 c 0 1.105469 -0.894531 2 -2 2 h -4 c -1.105469 0 -2 -0.894531 -2 -2 v -4 c 0 -1.105469 0.894531 -2 2 -2 z m -96 12 h 4 c 1.105469 0 2 0.894531 2 2 v 4 c 0 1.105469 -0.894531 2 -2 2 h -4 c -1.105469 0 -2 -0.894531 -2 -2 v -4 c 0 -1.105469 0.894531 -2 2 -2 z m 96 0 h 4 c 1.105469 0 2 0.894531 2 2 v 4 c 0 1.105469 -0.894531 2 -2 2 h -4 c -1.105469 0 -2 -0.894531 -2 -2 v -4 c 0 -1.105469 0.894531 -2 2 -2 z m -96 12 h 4 c 1.105469 0 2 0.894531 2 2 v 4 c 0 1.105469 -0.894531 2 -2 2 h -4 c -1.105469 0 -2 -0.894531 -2 -2 v -4 c 0 -1.105469 0.894531 -2 2 -2 z m 96 0 h 4 c 1.105469 0 2 0.894531 2 2 v 4 c 0 1.105469 -0.894531 2 -2 2 h -4 c -1.105469 0 -2 -0.894531 -2 -2 v -4 c 0 -1.105469 0.894531 -2 2 -2 z m 0 0"/>
    </clipPath>
    <clipPath id="p">
        <path d="m 32.390625 21.410156 h 63.21875 c 2.425781 0 4.390625 1.96875 4.390625 4.394532 v 37.804687 c 0 2.425781 -1.964844 4.390625 -4.390625 4.390625 h -63.21875 c -2.425781 0 -4.390625 -1.964844 -4.390625 -4.390625 v -37.804687 c 0 -2.425782 1.964844 -4.394532 4.390625 -4.394532 z m 0 0"/>
    </clipPath>
    <clipPath id="q">
        <path d="m 32.234375 21.410156 h 63.53125 c 2.339844 0 4.234375 1.898438 4.234375 4.238282 v 38.117187 c 0 2.339844 -1.894531 4.234375 -4.234375 4.234375 h -63.53125 c -2.339844 0 -4.234375 -1.894531 -4.234375 -4.234375 v -38.117187 c 0 -2.339844 1.894531 -4.238282 4.234375 -4.238282 z m 0 0"/>
    </clipPath>
    <mask id="r">
        <g filter="url(#a)">
            <rect fill-opacity="0.3" height="153.6" width="153.6" x="-12.8" y="-12.8"/>
        </g>
    </mask>
    <clipPath id="s">
        <rect height="152" width="192"/>
    </clipPath>
    <mask id="t">
        <g filter="url(#a)">
            <rect fill-opacity="0.3" height="153.6" width="153.6" x="-12.8" y="-12.8"/>
        </g>
    </mask>
    <clipPath id="u">
        <rect height="152" width="192"/>
    </clipPath>
    <mask id="v">
        <g filter="url(#a)">
            <rect fill-opacity="0.5" height="153.6" width="153.6" x="-12.8" y="-12.8"/>
        </g>
    </mask>
    <clipPath id="w">
        <rect height="152" width="192"/>
    </clipPath>
    <clipPath id="x">
        <path d="m 78 28 h 14 v 13 h -14 z m 0 0"/>
    </clipPath>
    <clipPath id="y">
        <path d="m 8 30 v 84 c 0 1.105469 0.894531 2 2 2 s 2 -0.894531 2 -2 s 0.894531 -2 2 -2 h 4 c 1.105469 0 2 0.894531 2 2 s 0.894531 2 2 2 h 84 c 1.105469 0 2 -0.894531 2 -2 s 0.894531 -2 2 -2 h 4 c 1.105469 0 2 0.894531 2 2 s 0.894531 2 2 2 s 2 -0.894531 2 -2 v -84 c 0 -1.105469 -0.894531 -2 -2 -2 s -2 0.894531 -2 2 v 4 c 0 1.105469 -0.894531 2 -2 2 h -4 c -1.105469 0 -2 -0.894531 -2 -2 v -4 c 0 -1.105469 -0.894531 -2 -2 -2 h -84 c -1.105469 0 -2 0.894531 -2 2 v 4 c 0 1.105469 -0.894531 2 -2 2 h -4 c -1.105469 0 -2 -0.894531 -2 -2 v -4 c 0 -1.105469 -0.894531 -2 -2 -2 s -2 0.894531 -2 2 z m 6 10 h 4 c 1.105469 0 2 0.894531 2 2 v 4 c 0 1.105469 -0.894531 2 -2 2 h -4 c -1.105469 0 -2 -0.894531 -2 -2 v -4 c 0 -1.105469 0.894531 -2 2 -2 z m 96 0 h 4 c 1.105469 0 2 0.894531 2 2 v 4 c 0 1.105469 -0.894531 2 -2 2 h -4 c -1.105469 0 -2 -0.894531 -2 -2 v -4 c 0 -1.105469 0.894531 -2 2 -2 z m -96 12 h 4 c 1.105469 0 2 0.894531 2 2 v 4 c 0 1.105469 -0.894531 2 -2 2 h -4 c -1.105469 0 -2 -0.894531 -2 -2 v -4 c 0 -1.105469 0.894531 -2 2 -2 z m 96 0 h 4 c 1.105469 0 2 0.894531 2 2 v 4 c 0 1.105469 -0.894531 2 -2 2 h -4 c -1.105469 0 -2 -0.894531 -2 -2 v -4 c 0 -1.105469 0.894531 -2 2 -2 z m -96 12 h 4 c 1.105469 0 2 0.894531 2 2 v 4 c 0 1.105469 -0.894531 2 -2 2 h -4 c -1.105469 0 -2 -0.894531 -2 -2 v -4 c 0 -1.105469 0.894531 -2 2 -2 z m 96 0 h 4 c 1.105469 0 2 0.894531 2 2 v 4 c 0 1.105469 -0.894531 2 -2 2 h -4 c -1.105469 0 -2 -0.894531 -2 -2 v -4 c 0 -1.105469 0.894531 -2 2 -2 z m -96 12 h 4 c 1.105469 0 2 0.894531 2 2 v 4 c 0 1.105469 -0.894531 2 -2 2 h -4 c -1.105469 0 -2 -0.894531 -2 -2 v -4 c 0 -1.105469 0.894531 -2 2 -2 z m 96 0 h 4 c 1.105469 0 2 0.894531 2 2 v 4 c 0 1.105469 -0.894531 2 -2 2 h -4 c -1.105469 0 -2 -0.894531 -2 -2 v -4 c 0 -1.105469 0.894531 -2 2 -2 z m -96 12 h 4 c 1.105469 0 2 0.894531 2 2 v 4 c 0 1.105469 -0.894531 2 -2 2 h -4 c -1.105469 0 -2 -0.894531 -2 -2 v -4 c 0 -1.105469 0.894531 -2 2 -2 z m 96 0 h 4 c 1.105469 0 2 0.894531 2 2 v 4 c 0 1.105469 -0.894531 2 -2 2 h -4 c -1.105469 0 -2 -0.894531 -2 -2 v -4 c 0 -1.105469 0.894531 -2 2 -2 z m -96 12 h 4 c 1.105469 0 2 0.894531 2 2 v 4 c 0 1.105469 -0.894531 2 -2 2 h -4 c -1.105469 0 -2 -0.894531 -2 -2 v -4 c 0 -1.105469 0.894531 -2 2 -2 z m 96 0 h 4 c 1.105469 0 2 0.894531 2 2 v 4 c 0 1.105469 -0.894531 2 -2 2 h -4 c -1.105469 0 -2 -0.894531 -2 -2 v -4 c 0 -1.105469 0.894531 -2 2 -2 z m 0 0"/>
    </clipPath>
    <clipPath id="z">
        <path d="m 32.390625 21.410156 h 63.21875 c 2.425781 0 4.390625 1.96875 4.390625 4.394532 v 37.804687 c 0 2.425781 -1.964844 4.390625 -4.390625 4.390625 h -63.21875 c -2.425781 0 -4.390625 -1.964844 -4.390625 -4.390625 v -37.804687 c 0 -2.425782 1.964844 -4.394532 4.390625 -4.394532 z m 0 0"/>
    </clipPath>
    <clipPath id="A">
        <path d="m 32.234375 21.410156 h 63.53125 c 2.339844 0 4.234375 1.898438 4.234375 4.238282 v 38.117187 c 0 2.339844 -1.894531 4.234375 -4.234375 4.234375 h -63.53125 c -2.339844 0 -4.234375 -1.894531 -4.234375 -4.234375 v -38.117187 c 0 -2.339844 1.894531 -4.238282 4.234375 -4.238282 z m 0 0"/>
    </clipPath>
    <clipPath id="B">
        <path d="m 28 36 h 46 v 32 h -46 z m 0 0"/>
    </clipPath>
    <clipPath id="C">
        <path d="m 8 30 v 84 c 0 1.105469 0.894531 2 2 2 s 2 -0.894531 2 -2 s 0.894531 -2 2 -2 h 4 c 1.105469 0 2 0.894531 2 2 s 0.894531 2 2 2 h 84 c 1.105469 0 2 -0.894531 2 -2 s 0.894531 -2 2 -2 h 4 c 1.105469 0 2 0.894531 2 2 s 0.894531 2 2 2 s 2 -0.894531 2 -2 v -84 c 0 -1.105469 -0.894531 -2 -2 -2 s -2 0.894531 -2 2 v 4 c 0 1.105469 -0.894531 2 -2 2 h -4 c -1.105469 0 -2 -0.894531 -2 -2 v -4 c 0 -1.105469 -0.894531 -2 -2 -2 h -84 c -1.105469 0 -2 0.894531 -2 2 v 4 c 0 1.105469 -0.894531 2 -2 2 h -4 c -1.105469 0 -2 -0.894531 -2 -2 v -4 c 0 -1.105469 -0.894531 -2 -2 -2 s -2 0.894531 -2 2 z m 6 10 h 4 c 1.105469 0 2 0.894531 2 2 v 4 c 0 1.105469 -0.894531 2 -2 2 h -4 c -1.105469 0 -2 -0.894531 -2 -2 v -4 c 0 -1.105469 0.894531 -2 2 -2 z m 96 0 h 4 c 1.105469 0 2 0.894531 2 2 v 4 c 0 1.105469 -0.894531 2 -2 2 h -4 c -1.105469 0 -2 -0.894531 -2 -2 v -4 c 0 -1.105469 0.894531 -2 2 -2 z m -96 12 h 4 c 1.105469 0 2 0.894531 2 2 v 4 c 0 1.105469 -0.894531 2 -2 2 h -4 c -1.105469 0 -2 -0.894531 -2 -2 v -4 c 0 -1.105469 0.894531 -2 2 -2 z m 96 0 h 4 c 1.105469 0 2 0.894531 2 2 v 4 c 0 1.105469 -0.894531 2 -2 2 h -4 c -1.105469 0 -2 -0.894531 -2 -2 v -4 c 0 -1.105469 0.894531 -2 2 -2 z m -96 12 h 4 c 1.105469 0 2 0.894531 2 2 v 4 c 0 1.105469 -0.894531 2 -2 2 h -4 c -1.105469 0 -2 -0.894531 -2 -2 v -4 c 0 -1.105469 0.894531 -2 2 -2 z m 96 0 h 4 c 1.105469 0 2 0.894531 2 2 v 4 c 0 1.105469 -0.894531 2 -2 2 h -4 c -1.105469 0 -2 -0.894531 -2 -2 v -4 c 0 -1.105469 0.894531 -2 2 -2 z m -96 12 h 4 c 1.105469 0 2 0.894531 2 2 v 4 c 0 1.105469 -0.894531 2 -2 2 h -4 c -1.105469 0 -2 -0.894531 -2 -2 v -4 c 0 -1.105469 0.894531 -2 2 -2 z m 96 0 h 4 c 1.105469 0 2 0.894531 2 2 v 4 c 0 1.105469 -0.894531 2 -2 2 h -4 c -1.105469 0 -2 -0.894531 -2 -2 v -4 c 0 -1.105469 0.894531 -2 2 -2 z m -96 12 h 4 c 1.105469 0 2 0.894531 2 2 v 4 c 0 1.105469 -0.894531 2 -2 2 h -4 c -1.105469 0 -2 -0.894531 -2 -2 v -4 c 0 -1.105469 0.894531 -2 2 -2 z m 96 0 h 4 c 1.105469 0 2 0.894531 2 2 v 4 c 0 1.105469 -0.894531 2 -2 2 h -4 c -1.105469 0 -2 -0.894531 -2 -2 v -4 c 0 -1.105469 0.894531 -2 2 -2 z m -96 12 h 4 c 1.105469 0 2 0.894531 2 2 v 4 c 0 1.105469 -0.894531 2 -2 2 h -4 c -1.105469 0 -2 -0.894531 -2 -2 v -4 c 0 -1.105469 0.894531 -2 2 -2 z m 96 0 h 4 c 1.105469 0 2 0.894531 2 2 v 4 c 0 1.105469 -0.894531 2 -2 2 h -4 c -1.105469 0 -2 -0.894531 -2 -2 v -4 c 0 -1.105469 0.894531 -2 2 -2 z m 0 0"/>
    </clipPath>
    <clipPath id="D">
        <path d="m 32.390625 21.410156 h 63.21875 c 2.425781 0 4.390625 1.96875 4.390625 4.394532 v 37.804687 c 0 2.425781 -1.964844 4.390625 -4.390625 4.390625 h -63.21875 c -2.425781 0 -4.390625 -1.964844 -4.390625 -4.390625 v -37.804687 c 0 -2.425782 1.964844 -4.394532 4.390625 -4.394532 z m 0 0"/>
    </clipPath>
    <clipPath id="E">
        <path d="m 28 71 h 72 v 45 h -72 z m 0 0"/>
    </clipPath>
    <clipPath id="F">
        <path d="m 8 30 v 84 c 0 1.105469 0.894531 2 2 2 s 2 -0.894531 2 -2 s 0.894531 -2 2 -2 h 4 c 1.105469 0 2 0.894531 2 2 s 0.894531 2 2 2 h 84 c 1.105469 0 2 -0.894531 2 -2 s 0.894531 -2 2 -2 h 4 c 1.105469 0 2 0.894531 2 2 s 0.894531 2 2 2 s 2 -0.894531 2 -2 v -84 c 0 -1.105469 -0.894531 -2 -2 -2 s -2 0.894531 -2 2 v 4 c 0 1.105469 -0.894531 2 -2 2 h -4 c -1.105469 0 -2 -0.894531 -2 -2 v -4 c 0 -1.105469 -0.894531 -2 -2 -2 h -84 c -1.105469 0 -2 0.894531 -2 2 v 4 c 0 1.105469 -0.894531 2 -2 2 h -4 c -1.105469 0 -2 -0.894531 -2 -2 v -4 c 0 -1.105469 -0.894531 -2 -2 -2 s -2 0.894531 -2 2 z m 6 10 h 4 c 1.105469 0 2 0.894531 2 2 v 4 c 0 1.105469 -0.894531 2 -2 2 h -4 c -1.105469 0 -2 -0.894531 -2 -2 v -4 c 0 -1.105469 0.894531 -2 2 -2 z m 96 0 h 4 c 1.105469 0 2 0.894531 2 2 v 4 c 0 1.105469 -0.894531 2 -2 2 h -4 c -1.105469 0 -2 -0.894531 -2 -2 v -4 c 0 -1.105469 0.894531 -2 2 -2 z m -96 12 h 4 c 1.105469 0 2 0.894531 2 2 v 4 c 0 1.105469 -0.894531 2 -2 2 h -4 c -1.105469 0 -2 -0.894531 -2 -2 v -4 c 0 -1.105469 0.894531 -2 2 -2 z m 96 0 h 4 c 1.105469 0 2 0.894531 2 2 v 4 c 0 1.105469 -0.894531 2 -2 2 h -4 c -1.105469 0 -2 -0.894531 -2 -2 v -4 c 0 -1.105469 0.894531 -2 2 -2 z m -96 12 h 4 c 1.105469 0 2 0.894531 2 2 v 4 c 0 1.105469 -0.894531 2 -2 2 h -4 c -1.105469 0 -2 -0.894531 -2 -2 v -4 c 0 -1.105469 0.894531 -2 2 -2 z m 96 0 h 4 c 1.105469 0 2 0.894531 2 2 v 4 c 0 1.105469 -0.894531 2 -2 2 h -4 c -1.105469 0 -2 -0.894531 -2 -2 v -4 c 0 -1.105469 0.894531 -2 2 -2 z m -96 12 h 4 c 1.105469 0 2 0.894531 2 2 v 4 c 0 1.105469 -0.894531 2 -2 2 h -4 c -1.105469 0 -2 -0.894531 -2 -2 v -4 c 0 -1.105469 0.894531 -2 2 -2 z m 96 0 h 4 c 1.105469 0 2 0.894531 2 2 v 4 c 0 1.105469 -0.894531 2 -2 2 h -4 c -1.105469 0 -2 -0.894531 -2 -2 v -4 c 0 -1.105469 0.894531 -2 2 -2 z m -96 12 h 4 c 1.105469 0 2 0.894531 2 2 v 4 c 0 1.105469 -0.894531 2 -2 2 h -4 c -1.105469 0 -2 -0.894531 -2 -2 v -4 c 0 -1.105469 0.894531 -2 2 -2 z m 96 0 h 4 c 1.105469 0 2 0.894531 2 2 v 4 c 0 1.105469 -0.894531 2 -2 2 h -4 c -1.105469 0 -2 -0.894531 -2 -2 v -4 c 0 -1.105469 0.894531 -2 2 -2 z m -96 12 h 4 c 1.105469 0 2 0.894531 2 2 v 4 c 0 1.105469 -0.894531 2 -2 2 h -4 c -1.105469 0 -2 -0.894531 -2 -2 v -4 c 0 -1.105469 0.894531 -2 2 -2 z m 96 0 h 4 c 1.105469 0 2 0.894531 2 2 v 4 c 0 1.105469 -0.894531 2 -2 2 h -4 c -1.105469 0 -2 -0.894531 -2 -2 v -4 c 0 -1.105469 0.894531 -2 2 -2 z m 0 0"/>
    </clipPath>
    <clipPath id="G">
        <path d="m 32.390625 71.882812 h 63.21875 c 2.425781 0 4.390625 1.964844 4.390625 4.390626 v 37.804687 c 0 2.425781 -1.964844 4.390625 -4.390625 4.390625 h -63.21875 c -2.425781 0 -4.390625 -1.964844 -4.390625 -4.390625 v -37.804687 c 0 -2.425782 1.964844 -4.390626 4.390625 -4.390626 z m 0 0"/>
    </clipPath>
    <linearGradient id="H" gradientTransform="matrix(2.117647 0 0 1.791855 -52.470591 -24.877831)" x1="53" x2="53"
                    xlink:href="#i" y1="71.727272" y2="54"/>
    <clipPath id="I">
        <path d="m 39 94 h 61 v 22 h -61 z m 0 0"/>
    </clipPath>
    <clipPath id="J">
        <path d="m 8 30 v 84 c 0 1.105469 0.894531 2 2 2 s 2 -0.894531 2 -2 s 0.894531 -2 2 -2 h 4 c 1.105469 0 2 0.894531 2 2 s 0.894531 2 2 2 h 84 c 1.105469 0 2 -0.894531 2 -2 s 0.894531 -2 2 -2 h 4 c 1.105469 0 2 0.894531 2 2 s 0.894531 2 2 2 s 2 -0.894531 2 -2 v -84 c 0 -1.105469 -0.894531 -2 -2 -2 s -2 0.894531 -2 2 v 4 c 0 1.105469 -0.894531 2 -2 2 h -4 c -1.105469 0 -2 -0.894531 -2 -2 v -4 c 0 -1.105469 -0.894531 -2 -2 -2 h -84 c -1.105469 0 -2 0.894531 -2 2 v 4 c 0 1.105469 -0.894531 2 -2 2 h -4 c -1.105469 0 -2 -0.894531 -2 -2 v -4 c 0 -1.105469 -0.894531 -2 -2 -2 s -2 0.894531 -2 2 z m 6 10 h 4 c 1.105469 0 2 0.894531 2 2 v 4 c 0 1.105469 -0.894531 2 -2 2 h -4 c -1.105469 0 -2 -0.894531 -2 -2 v -4 c 0 -1.105469 0.894531 -2 2 -2 z m 96 0 h 4 c 1.105469 0 2 0.894531 2 2 v 4 c 0 1.105469 -0.894531 2 -2 2 h -4 c -1.105469 0 -2 -0.894531 -2 -2 v -4 c 0 -1.105469 0.894531 -2 2 -2 z m -96 12 h 4 c 1.105469 0 2 0.894531 2 2 v 4 c 0 1.105469 -0.894531 2 -2 2 h -4 c -1.105469 0 -2 -0.894531 -2 -2 v -4 c 0 -1.105469 0.894531 -2 2 -2 z m 96 0 h 4 c 1.105469 0 2 0.894531 2 2 v 4 c 0 1.105469 -0.894531 2 -2 2 h -4 c -1.105469 0 -2 -0.894531 -2 -2 v -4 c 0 -1.105469 0.894531 -2 2 -2 z m -96 12 h 4 c 1.105469 0 2 0.894531 2 2 v 4 c 0 1.105469 -0.894531 2 -2 2 h -4 c -1.105469 0 -2 -0.894531 -2 -2 v -4 c 0 -1.105469 0.894531 -2 2 -2 z m 96 0 h 4 c 1.105469 0 2 0.894531 2 2 v 4 c 0 1.105469 -0.894531 2 -2 2 h -4 c -1.105469 0 -2 -0.894531 -2 -2 v -4 c 0 -1.105469 0.894531 -2 2 -2 z m -96 12 h 4 c 1.105469 0 2 0.894531 2 2 v 4 c 0 1.105469 -0.894531 2 -2 2 h -4 c -1.105469 0 -2 -0.894531 -2 -2 v -4 c 0 -1.105469 0.894531 -2 2 -2 z m 96 0 h 4 c 1.105469 0 2 0.894531 2 2 v 4 c 0 1.105469 -0.894531 2 -2 2 h -4 c -1.105469 0 -2 -0.894531 -2 -2 v -4 c 0 -1.105469 0.894531 -2 2 -2 z m -96 12 h 4 c 1.105469 0 2 0.894531 2 2 v 4 c 0 1.105469 -0.894531 2 -2 2 h -4 c -1.105469 0 -2 -0.894531 -2 -2 v -4 c 0 -1.105469 0.894531 -2 2 -2 z m 96 0 h 4 c 1.105469 0 2 0.894531 2 2 v 4 c 0 1.105469 -0.894531 2 -2 2 h -4 c -1.105469 0 -2 -0.894531 -2 -2 v -4 c 0 -1.105469 0.894531 -2 2 -2 z m -96 12 h 4 c 1.105469 0 2 0.894531 2 2 v 4 c 0 1.105469 -0.894531 2 -2 2 h -4 c -1.105469 0 -2 -0.894531 -2 -2 v -4 c 0 -1.105469 0.894531 -2 2 -2 z m 96 0 h 4 c 1.105469 0 2 0.894531 2 2 v 4 c 0 1.105469 -0.894531 2 -2 2 h -4 c -1.105469 0 -2 -0.894531 -2 -2 v -4 c 0 -1.105469 0.894531 -2 2 -2 z m 0 0"/>
    </clipPath>
    <clipPath id="K">
        <path d="m 32.390625 71.882812 h 63.21875 c 2.425781 0 4.390625 1.964844 4.390625 4.390626 v 37.804687 c 0 2.425781 -1.964844 4.390625 -4.390625 4.390625 h -63.21875 c -2.425781 0 -4.390625 -1.964844 -4.390625 -4.390625 v -37.804687 c 0 -2.425782 1.964844 -4.390626 4.390625 -4.390626 z m 0 0"/>
    </clipPath>
    <clipPath id="L">
        <path d="m 28 71 h 72 v 45 h -72 z m 0 0"/>
    </clipPath>
    <clipPath id="M">
        <path d="m 8 30 v 84 c 0 1.105469 0.894531 2 2 2 s 2 -0.894531 2 -2 s 0.894531 -2 2 -2 h 4 c 1.105469 0 2 0.894531 2 2 s 0.894531 2 2 2 h 84 c 1.105469 0 2 -0.894531 2 -2 s 0.894531 -2 2 -2 h 4 c 1.105469 0 2 0.894531 2 2 s 0.894531 2 2 2 s 2 -0.894531 2 -2 v -84 c 0 -1.105469 -0.894531 -2 -2 -2 s -2 0.894531 -2 2 v 4 c 0 1.105469 -0.894531 2 -2 2 h -4 c -1.105469 0 -2 -0.894531 -2 -2 v -4 c 0 -1.105469 -0.894531 -2 -2 -2 h -84 c -1.105469 0 -2 0.894531 -2 2 v 4 c 0 1.105469 -0.894531 2 -2 2 h -4 c -1.105469 0 -2 -0.894531 -2 -2 v -4 c 0 -1.105469 -0.894531 -2 -2 -2 s -2 0.894531 -2 2 z m 6 10 h 4 c 1.105469 0 2 0.894531 2 2 v 4 c 0 1.105469 -0.894531 2 -2 2 h -4 c -1.105469 0 -2 -0.894531 -2 -2 v -4 c 0 -1.105469 0.894531 -2 2 -2 z m 96 0 h 4 c 1.105469 0 2 0.894531 2 2 v 4 c 0 1.105469 -0.894531 2 -2 2 h -4 c -1.105469 0 -2 -0.894531 -2 -2 v -4 c 0 -1.105469 0.894531 -2 2 -2 z m -96 12 h 4 c 1.105469 0 2 0.894531 2 2 v 4 c 0 1.105469 -0.894531 2 -2 2 h -4 c -1.105469 0 -2 -0.894531 -2 -2 v -4 c 0 -1.105469 0.894531 -2 2 -2 z m 96 0 h 4 c 1.105469 0 2 0.894531 2 2 v 4 c 0 1.105469 -0.894531 2 -2 2 h -4 c -1.105469 0 -2 -0.894531 -2 -2 v -4 c 0 -1.105469 0.894531 -2 2 -2 z m -96 12 h 4 c 1.105469 0 2 0.894531 2 2 v 4 c 0 1.105469 -0.894531 2 -2 2 h -4 c -1.105469 0 -2 -0.894531 -2 -2 v -4 c 0 -1.105469 0.894531 -2 2 -2 z m 96 0 h 4 c 1.105469 0 2 0.894531 2 2 v 4 c 0 1.105469 -0.894531 2 -2 2 h -4 c -1.105469 0 -2 -0.894531 -2 -2 v -4 c 0 -1.105469 0.894531 -2 2 -2 z m -96 12 h 4 c 1.105469 0 2 0.894531 2 2 v 4 c 0 1.105469 -0.894531 2 -2 2 h -4 c -1.105469 0 -2 -0.894531 -2 -2 v -4 c 0 -1.105469 0.894531 -2 2 -2 z m 96 0 h 4 c 1.105469 0 2 0.894531 2 2 v 4 c 0 1.105469 -0.894531 2 -2 2 h -4 c -1.105469 0 -2 -0.894531 -2 -2 v -4 c 0 -1.105469 0.894531 -2 2 -2 z m -96 12 h 4 c 1.105469 0 2 0.894531 2 2 v 4 c 0 1.105469 -0.894531 2 -2 2 h -4 c -1.105469 0 -2 -0.894531 -2 -2 v -4 c 0 -1.105469 0.894531 -2 2 -2 z m 96 0 h 4 c 1.105469 0 2 0.894531 2 2 v 4 c 0 1.105469 -0.894531 2 -2 2 h -4 c -1.105469 0 -2 -0.894531 -2 -2 v -4 c 0 -1.105469 0.894531 -2 2 -2 z m -96 12 h 4 c 1.105469 0 2 0.894531 2 2 v 4 c 0 1.105469 -0.894531 2 -2 2 h -4 c -1.105469 0 -2 -0.894531 -2 -2 v -4 c 0 -1.105469 0.894531 -2 2 -2 z m 96 0 h 4 c 1.105469 0 2 0.894531 2 2 v 4 c 0 1.105469 -0.894531 2 -2 2 h -4 c -1.105469 0 -2 -0.894531 -2 -2 v -4 c 0 -1.105469 0.894531 -2 2 -2 z m 0 0"/>
    </clipPath>
    <clipPath id="N">
        <path d="m 32.390625 71.882812 h 63.21875 c 2.425781 0 4.390625 1.964844 4.390625 4.390626 v 37.804687 c 0 2.425781 -1.964844 4.390625 -4.390625 4.390625 h -63.21875 c -2.425781 0 -4.390625 -1.964844 -4.390625 -4.390625 v -37.804687 c 0 -2.425782 1.964844 -4.390626 4.390625 -4.390626 z m 0 0"/>
    </clipPath>
    <clipPath id="O">
        <path d="m 32.234375 71.882812 h 63.53125 c 2.339844 0 4.234375 1.894532 4.234375 4.234376 v 38.117187 c 0 2.339844 -1.894531 4.234375 -4.234375 4.234375 h -63.53125 c -2.339844 0 -4.234375 -1.894531 -4.234375 -4.234375 v -38.117187 c 0 -2.339844 1.894531 -4.234376 4.234375 -4.234376 z m 0 0"/>
    </clipPath>
    <mask id="P">
        <g filter="url(#a)">
            <rect fill-opacity="0.3" height="153.6" width="153.6" x="-12.8" y="-12.8"/>
        </g>
    </mask>
    <clipPath id="Q">
        <rect height="152" width="192"/>
    </clipPath>
    <mask id="R">
        <g filter="url(#a)">
            <rect fill-opacity="0.3" height="153.6" width="153.6" x="-12.8" y="-12.8"/>
        </g>
    </mask>
    <clipPath id="S">
        <rect height="152" width="192"/>
    </clipPath>
    <mask id="T">
        <g filter="url(#a)">
            <rect fill-opacity="0.5" height="153.6" width="153.6" x="-12.8" y="-12.8"/>
        </g>
    </mask>
    <clipPath id="U">
        <rect height="152" width="192"/>
    </clipPath>
    <clipPath id="V">
        <path d="m 78 78 h 14 v 13 h -14 z m 0 0"/>
    </clipPath>
    <clipPath id="W">
        <path d="m 8 30 v 84 c 0 1.105469 0.894531 2 2 2 s 2 -0.894531 2 -2 s 0.894531 -2 2 -2 h 4 c 1.105469 0 2 0.894531 2 2 s 0.894531 2 2 2 h 84 c 1.105469 0 2 -0.894531 2 -2 s 0.894531 -2 2 -2 h 4 c 1.105469 0 2 0.894531 2 2 s 0.894531 2 2 2 s 2 -0.894531 2 -2 v -84 c 0 -1.105469 -0.894531 -2 -2 -2 s -2 0.894531 -2 2 v 4 c 0 1.105469 -0.894531 2 -2 2 h -4 c -1.105469 0 -2 -0.894531 -2 -2 v -4 c 0 -1.105469 -0.894531 -2 -2 -2 h -84 c -1.105469 0 -2 0.894531 -2 2 v 4 c 0 1.105469 -0.894531 2 -2 2 h -4 c -1.105469 0 -2 -0.894531 -2 -2 v -4 c 0 -1.105469 -0.894531 -2 -2 -2 s -2 0.894531 -2 2 z m 6 10 h 4 c 1.105469 0 2 0.894531 2 2 v 4 c 0 1.105469 -0.894531 2 -2 2 h -4 c -1.105469 0 -2 -0.894531 -2 -2 v -4 c 0 -1.105469 0.894531 -2 2 -2 z m 96 0 h 4 c 1.105469 0 2 0.894531 2 2 v 4 c 0 1.105469 -0.894531 2 -2 2 h -4 c -1.105469 0 -2 -0.894531 -2 -2 v -4 c 0 -1.105469 0.894531 -2 2 -2 z m -96 12 h 4 c 1.105469 0 2 0.894531 2 2 v 4 c 0 1.105469 -0.894531 2 -2 2 h -4 c -1.105469 0 -2 -0.894531 -2 -2 v -4 c 0 -1.105469 0.894531 -2 2 -2 z m 96 0 h 4 c 1.105469 0 2 0.894531 2 2 v 4 c 0 1.105469 -0.894531 2 -2 2 h -4 c -1.105469 0 -2 -0.894531 -2 -2 v -4 c 0 -1.105469 0.894531 -2 2 -2 z m -96 12 h 4 c 1.105469 0 2 0.894531 2 2 v 4 c 0 1.105469 -0.894531 2 -2 2 h -4 c -1.105469 0 -2 -0.894531 -2 -2 v -4 c 0 -1.105469 0.894531 -2 2 -2 z m 96 0 h 4 c 1.105469 0 2 0.894531 2 2 v 4 c 0 1.105469 -0.894531 2 -2 2 h -4 c -1.105469 0 -2 -0.894531 -2 -2 v -4 c 0 -1.105469 0.894531 -2 2 -2 z m -96 12 h 4 c 1.105469 0 2 0.894531 2 2 v 4 c 0 1.105469 -0.894531 2 -2 2 h -4 c -1.105469 0 -2 -0.894531 -2 -2 v -4 c 0 -1.105469 0.894531 -2 2 -2 z m 96 0 h 4 c 1.105469 0 2 0.894531 2 2 v 4 c 0 1.105469 -0.894531 2 -2 2 h -4 c -1.105469 0 -2 -0.894531 -2 -2 v -4 c 0 -1.105469 0.894531 -2 2 -2 z m -96 12 h 4 c 1.105469 0 2 0.894531 2 2 v 4 c 0 1.105469 -0.894531 2 -2 2 h -4 c -1.105469 0 -2 -0.894531 -2 -2 v -4 c 0 -1.105469 0.894531 -2 2 -2 z m 96 0 h 4 c 1.105469 0 2 0.894531 2 2 v 4 c 0 1.105469 -0.894531 2 -2 2 h -4 c -1.105469 0 -2 -0.894531 -2 -2 v -4 c 0 -1.105469 0.894531 -2 2 -2 z m -96 12 h 4 c 1.105469 0 2 0.894531 2 2 v 4 c 0 1.105469 -0.894531 2 -2 2 h -4 c -1.105469 0 -2 -0.894531 -2 -2 v -4 c 0 -1.105469 0.894531 -2 2 -2 z m 96 0 h 4 c 1.105469 0 2 0.894531 2 2 v 4 c 0 1.105469 -0.894531 2 -2 2 h -4 c -1.105469 0 -2 -0.894531 -2 -2 v -4 c 0 -1.105469 0.894531 -2 2 -2 z m 0 0"/>
    </clipPath>
    <clipPath id="X">
        <path d="m 32.390625 71.882812 h 63.21875 c 2.425781 0 4.390625 1.964844 4.390625 4.390626 v 37.804687 c 0 2.425781 -1.964844 4.390625 -4.390625 4.390625 h -63.21875 c -2.425781 0 -4.390625 -1.964844 -4.390625 -4.390625 v -37.804687 c 0 -2.425782 1.964844 -4.390626 4.390625 -4.390626 z m 0 0"/>
    </clipPath>
    <clipPath id="Y">
        <path d="m 32.234375 71.882812 h 63.53125 c 2.339844 0 4.234375 1.894532 4.234375 4.234376 v 38.117187 c 0 2.339844 -1.894531 4.234375 -4.234375 4.234375 h -63.53125 c -2.339844 0 -4.234375 -1.894531 -4.234375 -4.234375 v -38.117187 c 0 -2.339844 1.894531 -4.234376 4.234375 -4.234376 z m 0 0"/>
    </clipPath>
    <clipPath id="Z">
        <path d="m 28 87 h 46 v 29 h -46 z m 0 0"/>
    </clipPath>
    <clipPath id="aa">
        <path d="m 8 30 v 84 c 0 1.105469 0.894531 2 2 2 s 2 -0.894531 2 -2 s 0.894531 -2 2 -2 h 4 c 1.105469 0 2 0.894531 2 2 s 0.894531 2 2 2 h 84 c 1.105469 0 2 -0.894531 2 -2 s 0.894531 -2 2 -2 h 4 c 1.105469 0 2 0.894531 2 2 s 0.894531 2 2 2 s 2 -0.894531 2 -2 v -84 c 0 -1.105469 -0.894531 -2 -2 -2 s -2 0.894531 -2 2 v 4 c 0 1.105469 -0.894531 2 -2 2 h -4 c -1.105469 0 -2 -0.894531 -2 -2 v -4 c 0 -1.105469 -0.894531 -2 -2 -2 h -84 c -1.105469 0 -2 0.894531 -2 2 v 4 c 0 1.105469 -0.894531 2 -2 2 h -4 c -1.105469 0 -2 -0.894531 -2 -2 v -4 c 0 -1.105469 -0.894531 -2 -2 -2 s -2 0.894531 -2 2 z m 6 10 h 4 c 1.105469 0 2 0.894531 2 2 v 4 c 0 1.105469 -0.894531 2 -2 2 h -4 c -1.105469 0 -2 -0.894531 -2 -2 v -4 c 0 -1.105469 0.894531 -2 2 -2 z m 96 0 h 4 c 1.105469 0 2 0.894531 2 2 v 4 c 0 1.105469 -0.894531 2 -2 2 h -4 c -1.105469 0 -2 -0.894531 -2 -2 v -4 c 0 -1.105469 0.894531 -2 2 -2 z m -96 12 h 4 c 1.105469 0 2 0.894531 2 2 v 4 c 0 1.105469 -0.894531 2 -2 2 h -4 c -1.105469 0 -2 -0.894531 -2 -2 v -4 c 0 -1.105469 0.894531 -2 2 -2 z m 96 0 h 4 c 1.105469 0 2 0.894531 2 2 v 4 c 0 1.105469 -0.894531 2 -2 2 h -4 c -1.105469 0 -2 -0.894531 -2 -2 v -4 c 0 -1.105469 0.894531 -2 2 -2 z m -96 12 h 4 c 1.105469 0 2 0.894531 2 2 v 4 c 0 1.105469 -0.894531 2 -2 2 h -4 c -1.105469 0 -2 -0.894531 -2 -2 v -4 c 0 -1.105469 0.894531 -2 2 -2 z m 96 0 h 4 c 1.105469 0 2 0.894531 2 2 v 4 c 0 1.105469 -0.894531 2 -2 2 h -4 c -1.105469 0 -2 -0.894531 -2 -2 v -4 c 0 -1.105469 0.894531 -2 2 -2 z m -96 12 h 4 c 1.105469 0 2 0.894531 2 2 v 4 c 0 1.105469 -0.894531 2 -2 2 h -4 c -1.105469 0 -2 -0.894531 -2 -2 v -4 c 0 -1.105469 0.894531 -2 2 -2 z m 96 0 h 4 c 1.105469 0 2 0.894531 2 2 v 4 c 0 1.105469 -0.894531 2 -2 2 h -4 c -1.105469 0 -2 -0.894531 -2 -2 v -4 c 0 -1.105469 0.894531 -2 2 -2 z m -96 12 h 4 c 1.105469 0 2 0.894531 2 2 v 4 c 0 1.105469 -0.894531 2 -2 2 h -4 c -1.105469 0 -2 -0.894531 -2 -2 v -4 c 0 -1.105469 0.894531 -2 2 -2 z m 96 0 h 4 c 1.105469 0 2 0.894531 2 2 v 4 c 0 1.105469 -0.894531 2 -2 2 h -4 c -1.105469 0 -2 -0.894531 -2 -2 v -4 c 0 -1.105469 0.894531 -2 2 -2 z m -96 12 h 4 c 1.105469 0 2 0.894531 2 2 v 4 c 0 1.105469 -0.894531 2 -2 2 h -4 c -1.105469 0 -2 -0.894531 -2 -2 v -4 c 0 -1.105469 0.894531 -2 2 -2 z m 96 0 h 4 c 1.105469 0 2 0.894531 2 2 v 4 c 0 1.105469 -0.894531 2 -2 2 h -4 c -1.105469 0 -2 -0.894531 -2 -2 v -4 c 0 -1.105469 0.894531 -2 2 -2 z m 0 0"/>
    </clipPath>
    <clipPath id="ab">
        <path d="m 32.390625 71.882812 h 63.21875 c 2.425781 0 4.390625 1.964844 4.390625 4.390626 v 37.804687 c 0 2.425781 -1.964844 4.390625 -4.390625 4.390625 h -63.21875 c -2.425781 0 -4.390625 -1.964844 -4.390625 -4.390625 v -37.804687 c 0 -2.425782 1.964844 -4.390626 4.390625 -4.390626 z m 0 0"/>
    </clipPath>
    <path d="m 8 31.125 v 84 c 0 1.105469 0.894531 2 2 2 s 2 -0.894531 2 -2 s 0.894531 -2 2 -2 h 4 c 1.105469 0 2 0.894531 2 2 s 0.894531 2 2 2 h 84 c 1.105469 0 2 -0.894531 2 -2 s 0.894531 -2 2 -2 h 4 c 1.105469 0 2 0.894531 2 2 s 0.894531 2 2 2 s 2 -0.894531 2 -2 v -84 c 0 -1.105469 -0.894531 -2 -2 -2 s -2 0.894531 -2 2 v 4 c 0 1.105469 -0.894531 2 -2 2 h -4 c -1.105469 0 -2 -0.894531 -2 -2 v -4 c 0 -1.105469 -0.894531 -2 -2 -2 h -84 c -1.105469 0 -2 0.894531 -2 2 v 4 c 0 1.105469 -0.894531 2 -2 2 h -4 c -1.105469 0 -2 -0.894531 -2 -2 v -4 c 0 -1.105469 -0.894531 -2 -2 -2 s -2 0.894531 -2 2 z m 6 10 h 4 c 1.105469 0 2 0.894531 2 2 v 4 c 0 1.105469 -0.894531 2 -2 2 h -4 c -1.105469 0 -2 -0.894531 -2 -2 v -4 c 0 -1.105469 0.894531 -2 2 -2 z m 96 0 h 4 c 1.105469 0 2 0.894531 2 2 v 4 c 0 1.105469 -0.894531 2 -2 2 h -4 c -1.105469 0 -2 -0.894531 -2 -2 v -4 c 0 -1.105469 0.894531 -2 2 -2 z m -96 12 h 4 c 1.105469 0 2 0.894531 2 2 v 4 c 0 1.105469 -0.894531 2 -2 2 h -4 c -1.105469 0 -2 -0.894531 -2 -2 v -4 c 0 -1.105469 0.894531 -2 2 -2 z m 96 0 h 4 c 1.105469 0 2 0.894531 2 2 v 4 c 0 1.105469 -0.894531 2 -2 2 h -4 c -1.105469 0 -2 -0.894531 -2 -2 v -4 c 0 -1.105469 0.894531 -2 2 -2 z m -96 12 h 4 c 1.105469 0 2 0.894531 2 2 v 4 c 0 1.105469 -0.894531 2 -2 2 h -4 c -1.105469 0 -2 -0.894531 -2 -2 v -4 c 0 -1.105469 0.894531 -2 2 -2 z m 96 0 h 4 c 1.105469 0 2 0.894531 2 2 v 4 c 0 1.105469 -0.894531 2 -2 2 h -4 c -1.105469 0 -2 -0.894531 -2 -2 v -4 c 0 -1.105469 0.894531 -2 2 -2 z m -96 12 h 4 c 1.105469 0 2 0.894531 2 2 v 4 c 0 1.105469 -0.894531 2 -2 2 h -4 c -1.105469 0 -2 -0.894531 -2 -2 v -4 c 0 -1.105469 0.894531 -2 2 -2 z m 96 0 h 4 c 1.105469 0 2 0.894531 2 2 v 4 c 0 1.105469 -0.894531 2 -2 2 h -4 c -1.105469 0 -2 -0.894531 -2 -2 v -4 c 0 -1.105469 0.894531 -2 2 -2 z m -96 12 h 4 c 1.105469 0 2 0.894531 2 2 v 4 c 0 1.105469 -0.894531 2 -2 2 h -4 c -1.105469 0 -2 -0.894531 -2 -2 v -4 c 0 -1.105469 0.894531 -2 2 -2 z m 96 0 h 4 c 1.105469 0 2 0.894531 2 2 v 4 c 0 1.105469 -0.894531 2 -2 2 h -4 c -1.105469 0 -2 -0.894531 -2 -2 v -4 c 0 -1.105469 0.894531 -2 2 -2 z m -96 12 h 4 c 1.105469 0 2 0.894531 2 2 v 4 c 0 1.105469 -0.894531 2 -2 2 h -4 c -1.105469 0 -2 -0.894531 -2 -2 v -4 c 0 -1.105469 0.894531 -2 2 -2 z m 96 0 h 4 c 1.105469 0 2 0.894531 2 2 v 4 c 0 1.105469 -0.894531 2 -2 2 h -4 c -1.105469 0 -2 -0.894531 -2 -2 v -4 c 0 -1.105469 0.894531 -2 2 -2 z m 0 0"
          fill="url(#b)"/>
    <g clip-path="url(#c)">
        <g clip-path="url(#d)">
            <path d="m 6.996094 27.1875 h 115.507812 v 89.316406 h -115.507812 z m 0 0" fill="url(#e)"/>
        </g>
    </g>
    <g clip-path="url(#f)">
        <g clip-path="url(#g)">
            <g clip-path="url(#h)">
                <path d="m 28 21.410156 h 72 v 46.589844 h -72 z m 0 0" fill="url(#j)"/>
            </g>
        </g>
    </g>
    <g clip-path="url(#k)">
        <g clip-path="url(#l)">
            <g clip-path="url(#m)">
                <path d="m 39 80.554688 l 22.058594 -33.085938 c 1.378906 -2.070312 3.667968 -3.355469 6.15625 -3.449219 c 2.484375 -0.097656 4.867187 1 6.402344 2.957031 l 26.382812 33.578126 z m 0 0"
                      fill="#3d3846"/>
            </g>
        </g>
    </g>
    <g clip-path="url(#n)">
        <g clip-path="url(#o)">
            <g clip-path="url(#p)">
                <g clip-path="url(#q)">
                    <g mask="url(#r)">
                        <g clip-path="url(#s)" transform="matrix(1 0 0 1 -8 -16)">
                            <path d="m 118.589844 50.117188 c 0 14.035156 -11.378906 25.414062 -25.414063 25.414062 c -14.035156 0 -25.410156 -11.378906 -25.410156 -25.414062 c 0 -14.035157 11.375 -25.410157 25.410156 -25.410157 c 14.035157 0 25.414063 11.375 25.414063 25.410157 z m 0 0"
                                  fill="#fcd0a5"/>
                        </g>
                    </g>
                    <g mask="url(#t)">
                        <g clip-path="url(#u)" transform="matrix(1 0 0 1 -8 -16)">
                            <path d="m 110.117188 50.117188 c 0 9.355468 -7.585938 16.941406 -16.941407 16.941406 s -16.941406 -7.585938 -16.941406 -16.941406 c 0 -9.355469 7.585937 -16.941407 16.941406 -16.941407 s 16.941407 7.585938 16.941407 16.941407 z m 0 0"
                                  fill="#fcd0a5"/>
                        </g>
                    </g>
                    <g mask="url(#v)">
                        <g clip-path="url(#w)" transform="matrix(1 0 0 1 -8 -16)">
                            <path d="m 103.765625 50.117188 c 0 5.847656 -4.742187 10.589843 -10.589844 10.589843 c -5.847656 0 -10.585937 -4.742187 -10.585937 -10.589843 c 0 -5.847657 4.738281 -10.585938 10.585937 -10.585938 c 5.847657 0 10.589844 4.738281 10.589844 10.585938 z m 0 0"
                                  fill="#fcd0a5"/>
                        </g>
                    </g>
                </g>
            </g>
        </g>
    </g>
    <g clip-path="url(#x)">
        <g clip-path="url(#y)">
            <g clip-path="url(#z)">
                <g clip-path="url(#A)">
                    <path d="m 91.53125 34.117188 c 0 3.507812 -2.847656 6.351562 -6.355469 6.351562 c -3.507812 0 -6.351562 -2.84375 -6.351562 -6.351562 c 0 -3.507813 2.84375 -6.351563 6.351562 -6.351563 c 3.507813 0 6.355469 2.84375 6.355469 6.351563 z m 0 0"
                          fill="#fde6cf"/>
                </g>
            </g>
        </g>
    </g>
    <g clip-path="url(#B)">
        <g clip-path="url(#C)">
            <g clip-path="url(#D)">
                <path d="m 26 72.554688 l 17.03125 -32.511719 c 1.015625 -1.941407 3 -3.191407 5.191406 -3.269531 c 2.195313 -0.078126 4.261719 1.023437 5.414063 2.890624 l 20.363281 32.890626 z m 0 0"
                      fill="#241f31"/>
            </g>
        </g>
    </g>
    <g clip-path="url(#E)">
        <g clip-path="url(#F)">
            <g clip-path="url(#G)">
                <path d="m 28 71.882812 h 72 v 46.585938 h -72 z m 0 0" fill="url(#H)"/>
            </g>
        </g>
    </g>
    <g clip-path="url(#I)">
        <g clip-path="url(#J)">
            <g clip-path="url(#K)">
                <path d="m 39 131.023438 l 22.058594 -33.085938 c 1.378906 -2.070312 3.667968 -3.351562 6.15625 -3.449219 c 2.484375 -0.097656 4.867187 1.003907 6.402344 2.960938 l 26.382812 33.574219 z m 0 0"
                      fill="#3d3846"/>
            </g>
        </g>
    </g>
    <g clip-path="url(#L)">
        <g clip-path="url(#M)">
            <g clip-path="url(#N)">
                <g clip-path="url(#O)">
                    <g mask="url(#P)">
                        <g clip-path="url(#Q)" transform="matrix(1 0 0 1 -8 -16)">
                            <path d="m 118.589844 100.589844 c 0 14.03125 -11.378906 25.410156 -25.414063 25.410156 c -14.035156 0 -25.410156 -11.378906 -25.410156 -25.410156 c 0 -14.035156 11.375 -25.414063 25.410156 -25.414063 c 14.035157 0 25.414063 11.378907 25.414063 25.414063 z m 0 0"
                                  fill="#fcd0a5"/>
                        </g>
                    </g>
                    <g mask="url(#R)">
                        <g clip-path="url(#S)" transform="matrix(1 0 0 1 -8 -16)">
                            <path d="m 110.117188 100.589844 c 0 9.355468 -7.585938 16.941406 -16.941407 16.941406 s -16.941406 -7.585938 -16.941406 -16.941406 c 0 -9.359375 7.585937 -16.941406 16.941406 -16.941406 s 16.941407 7.582031 16.941407 16.941406 z m 0 0"
                                  fill="#fcd0a5"/>
                        </g>
                    </g>
                    <g mask="url(#T)">
                        <g clip-path="url(#U)" transform="matrix(1 0 0 1 -8 -16)">
                            <path d="m 103.765625 100.589844 c 0 5.847656 -4.742187 10.585937 -10.589844 10.585937 c -5.847656 0 -10.585937 -4.738281 -10.585937 -10.585937 s 4.738281 -10.589844 10.585937 -10.589844 c 5.847657 0 10.589844 4.742188 10.589844 10.589844 z m 0 0"
                                  fill="#fcd0a5"/>
                        </g>
                    </g>
                </g>
            </g>
        </g>
    </g>
    <g clip-path="url(#V)">
        <g clip-path="url(#W)">
            <g clip-path="url(#X)">
                <g clip-path="url(#Y)">
                    <path d="m 91.53125 84.589844 c 0 3.507812 -2.847656 6.351562 -6.355469 6.351562 c -3.507812 0 -6.351562 -2.84375 -6.351562 -6.351562 c 0 -3.511719 2.84375 -6.355469 6.351562 -6.355469 c 3.507813 0 6.355469 2.84375 6.355469 6.355469 z m 0 0"
                          fill="#fde6cf"/>
                </g>
            </g>
        </g>
    </g>
    <g clip-path="url(#Z)">
        <g clip-path="url(#aa)">
            <g clip-path="url(#ab)">
                <path d="m 26 123.023438 l 17.03125 -32.507813 c 1.015625 -1.945313 3 -3.195313 5.191406 -3.273437 c 2.195313 -0.078126 4.261719 1.023437 5.414063 2.890624 l 20.363281 32.890626 z m 0 0"
                      fill="#241f31"/>
            </g>
        </g>
    </g>
</svg>
